<?xml version="1.0" encoding="UTF-8" standalone="no"?>
<!-- Created with Inkscape (http://www.inkscape.org/) -->

<svg
   width="100.917mm"
   height="156.0338mm"
   viewBox="0 0 100.917 156.0338"
   version="1.1"
   id="svg1"
   xml:space="preserve"
   sodipodi:docname="Littleguard logo.svg"
   xmlns:inkscape="http://www.inkscape.org/namespaces/inkscape"
   xmlns:sodipodi="http://sodipodi.sourceforge.net/DTD/sodipodi-0.dtd"
   xmlns="http://www.w3.org/2000/svg"
   xmlns:svg="http://www.w3.org/2000/svg"><sodipodi:namedview
     id="namedview1"
     pagecolor="#ffffff"
     bordercolor="#666666"
     borderopacity="1.0"
     inkscape:showpageshadow="2"
     inkscape:pageopacity="0.0"
     inkscape:pagecheckerboard="0"
     inkscape:deskcolor="#d1d1d1"
     inkscape:document-units="mm"><inkscape:page
       x="0"
       y="0"
       width="100.917"
       height="156.0338"
       id="page2"
       margin="0"
       bleed="0" /></sodipodi:namedview><defs
     id="defs1" /><g
     id="layer1"
     transform="translate(-61.166187,-34.528674)"><path
       style="fill:#000000"
       d="m 110.20593,190.2654 c -2.60232,-1.16436 -41.859315,-19.00174 -45.404915,-20.63084 l -3.65821,-1.68084 -0.036,-66.73202 -0.036,-66.732011 h 13.19842 13.19842 v 7.02951 7.02951 h 6.09702 6.097035 v -7.02951 -7.02951 h 11.97886 c 9.48637,0 11.97928,0.0373 11.98088,0.17932 10e-4,0.0986 0.0173,3.24577 0.0359,6.99365 l 0.0338,6.81432 6.06116,0.0374 6.06116,0.0374 v -7.03107 -7.03107 H 149.01173 162.21 v 66.712261 66.71226 l -1.11181,0.51163 c -0.6115,0.28139 -4.69471,2.14518 -9.07381,4.14175 -4.3791,1.99657 -9.86643,4.50141 -12.19405,5.56631 -18.78301,8.59328 -27.91494,12.72528 -28.1072,12.71788 -0.12432,-0.005 -0.80705,-0.26865 -1.51718,-0.58638 z m 5.03983,-5.55653 c 9.31085,-4.24419 31.89535,-14.46829 38.06973,-17.23434 2.24873,-1.0074 4.26613,-1.91359 4.48311,-2.01376 l 0.39451,-0.18213 V 101.96432 38.650009 h -9.10967 -9.10967 v 6.81432 6.81433 h -10.04216 -10.04216 v -6.81551 -6.81551 l -8.11097,0.0371 -8.11098,0.037 0.008,6.77846 0.008,6.77846 H 93.566895 83.450345 v -6.81433 -6.81432 h -9.18141 -9.1814 l 0.004,63.301481 0.004,63.30147 3.61812,1.6079 c 1.98996,0.88435 5.49026,2.45489 7.77844,3.4901 2.28818,1.03521 7.22677,3.26387 10.97465,4.95258 3.74787,1.68871 10.687725,4.84059 15.421885,7.00416 4.73417,2.16358 8.68056,3.94015 8.76977,3.94793 0.0892,0.008 1.70313,-0.68826 3.58649,-1.54676 z m -21.853685,-60.87982 0.07,-23.993591 0.22866,-1.16995 c 1.11619,-5.7111 4.561855,-10.34815 9.520145,-12.81187 10.87682,-5.40458 24.15198,1.09936 26.0493,12.76241 l 0.22171,1.36287 0.0971,23.921861 0.0971,23.92186 H 111.49916 93.322115 Z m 30.948285,-2.07091 -0.007,-21.11514 -0.21275,-1.220001 c -0.84338,-4.8363 -4.61487,-8.76631 -9.61089,-10.01484 l -1.29114,-0.32266 -2.00843,0.0124 c -6.70189,0.0413 -11.77837,4.67581 -12.54735,11.454881 -0.16091,1.41857 -0.21567,42.13412 -0.0569,42.29291 0.0506,0.0506 5.86307,0.0775 12.91669,0.0598 l 12.82475,-0.0322 z"
       id="path13" /></g><path
     style="fill:#ffffff;stroke-width:0.191855"
     d="M 49.499224,155.82885 C 49.024382,155.61443 37.692926,150.46941 24.318211,144.39547 L 5.4657568e-4,133.35194 V 66.704418 0.05689388 H 13.142638 26.284729 V 7.0596139 14.062334 h 6.139369 6.139373 V 7.0596139 0.05689388 h 11.591555 c 6.375357,0 11.728122,0.05240433 11.895031,0.11645405 0.268931,0.10319785 0.303475,0.90033087 0.303475,7.00271997 v 6.8862661 h 6.2353 6.235298 V 7.0596139 0.05689388 H 87.870295 100.91646 V 66.69583 133.33477 l -0.43168,0.20093 c -8.370892,3.89648 -49.787964,22.69355 -49.988553,22.68723 -0.07351,-0.002 -0.52216,-0.17965 -0.997003,-0.39408 z m 12.440817,-9.11548 c 6.189326,-2.8056 16.627668,-7.52696 23.196314,-10.49192 L 97.07935,130.83062 V 67.45824 4.085856 h -9.209055 -9.209059 v 6.810865 6.810864 h -9.880549 -9.88055 V 10.896721 4.085856 h -8.249779 -8.24978 v 6.810865 6.810864 h -9.97648 -9.976476 V 10.896721 4.085856 H 13.142638 3.8376535 v 63.395263 63.395261 l 0.4316744,0.13662 c 0.5488617,0.1737 14.0416021,6.24129 31.3795521,14.11114 15.073161,6.84185 14.652542,6.65312 14.875769,6.67468 0.08914,0.009 5.226068,-2.27984 11.415392,-5.08545 z"
     id="path1" /><path
     style="fill:#ffffff;stroke-width:0.191855"
     d="m 32.310073,89.054569 0.13828,-24.196977 0.465153,-1.833692 c 1.596027,-6.291725 6.072068,-10.9534 12.308001,-12.818446 2.429166,-0.726516 6.303579,-0.852257 8.856276,-0.287422 7.505592,1.660763 12.931156,7.389368 14.011511,14.794114 0.140816,0.965144 0.22603,9.192942 0.258812,24.989167 l 0.04887,23.550257 -18.112591,-1e-5 -18.112594,-2e-5 z M 63.31281,87.342987 c 0,-23.3651 0.03281,-22.690095 -1.235098,-25.412745 -1.593919,-3.422708 -4.3931,-5.795827 -8.233987,-6.980697 -1.598314,-0.493062 -4.6916,-0.54723 -6.742692,-0.118076 -4.473456,0.935993 -8.056475,4.486783 -9.334058,9.2501 -0.391319,1.458992 -0.402947,1.970276 -0.497287,21.865826 -0.05313,11.204545 -0.03655,20.852475 0.03683,21.439835 l 0.133432,1.06793 H 50.376379 63.31281 Z"
     id="path2" /><path
     style="fill:#ffffff;stroke-width:0.191855"
     d="M 25.133596,144.6606 0.09647424,133.28889 0.04823711,66.672893 0,0.05689388 H 13.142364 26.284729 V 7.0596139 14.062334 h 6.139369 6.139373 V 7.031167 0 l 11.751138,0.1407011 c 6.463128,0.0773856 11.774808,0.16421678 11.803737,0.19295817 0.02893,0.0287414 0.107627,3.12945093 0.174885,6.89046573 l 0.12229,6.838209 h 6.204304 6.204305 V 7.0596139 0.05689388 H 87.870567 100.917 l -0.0482,66.61218412 -0.0482,66.612182 -2.877831,1.32368 c -5.175972,2.38073 -42.726975,19.43432 -45.018359,20.44485 -1.22904,0.54203 -2.351392,0.98483 -2.494118,0.98401 -0.142727,-7.9e-4 -11.526208,-5.11876 -25.296626,-11.3732 z m 34.001417,3.41581 c 4.566478,-2.05593 14.950474,-6.74542 23.075548,-10.4211 l 14.772862,-6.68304 0.04825,-63.443206 0.04825,-63.443208 H 87.87058 78.661236 v 6.810865 6.810864 h -9.880549 -9.88055 V 10.896721 4.085856 h -8.249779 -8.24978 v 6.810865 6.810864 h -9.97648 -9.976476 V 10.896721 4.085856 H 13.142638 3.8376535 l 0.006,63.456154 0.006,63.45615 2.3442234,0.98674 c 1.9345854,0.81431 24.3766311,10.9242 40.1397251,18.08249 2.110409,0.95837 3.985969,1.74353 4.167912,1.74479 0.181941,10e-4 4.067011,-1.67984 8.633489,-3.73577 z"
     id="path3" /></svg>
