<?xml version="1.0" encoding="UTF-8" standalone="no"?>
<!-- Created with Inkscape (http://www.inkscape.org/) -->

<svg
   width="101.13919mm"
   height="156.36211mm"
   viewBox="0 0 101.13919 156.36211"
   version="1.1"
   id="svg1"
   xml:space="preserve"
   xmlns="http://www.w3.org/2000/svg"
   xmlns:svg="http://www.w3.org/2000/svg"><defs
     id="defs1" /><g
     id="layer1"
     transform="translate(-61.070806,-34.48964)"><path
       style="fill:#000000"
       d="m 110.20593,190.2654 c -2.60232,-1.16436 -41.859315,-19.00174 -45.404915,-20.63084 l -3.65821,-1.68084 -0.036,-66.73202 -0.036,-66.732011 h 13.19842 13.19842 v 7.02951 7.02951 h 6.09702 6.097035 v -7.02951 -7.02951 h 11.97886 c 9.48637,0 11.97928,0.0373 11.98088,0.17932 10e-4,0.0986 0.0173,3.24577 0.0359,6.99365 l 0.0338,6.81432 6.06116,0.0374 6.06116,0.0374 v -7.03107 -7.03107 H 149.01173 162.21 v 66.712261 66.71226 l -1.11181,0.51163 c -0.6115,0.28139 -4.69471,2.14518 -9.07381,4.14175 -4.3791,1.99657 -9.86643,4.50141 -12.19405,5.56631 -18.78301,8.59328 -27.91494,12.72528 -28.1072,12.71788 -0.12432,-0.005 -0.80705,-0.26865 -1.51718,-0.58638 z m 5.03983,-5.55653 c 9.31085,-4.24419 31.89535,-14.46829 38.06973,-17.23434 2.24873,-1.0074 4.26613,-1.91359 4.48311,-2.01376 l 0.39451,-0.18213 V 101.96432 38.650009 h -9.10967 -9.10967 v 6.81432 6.81433 h -10.04216 -10.04216 v -6.81551 -6.81551 l -8.11097,0.0371 -8.11098,0.037 0.008,6.77846 0.008,6.77846 H 93.566895 83.450345 v -6.81433 -6.81432 h -9.18141 -9.1814 l 0.004,63.301481 0.004,63.30147 3.61812,1.6079 c 1.98996,0.88435 5.49026,2.45489 7.77844,3.4901 2.28818,1.03521 7.22677,3.26387 10.97465,4.95258 3.74787,1.68871 10.687725,4.84059 15.421885,7.00416 4.73417,2.16358 8.68056,3.94015 8.76977,3.94793 0.0892,0.008 1.70313,-0.68826 3.58649,-1.54676 z m -21.853685,-60.87982 0.07,-23.993591 0.22866,-1.16995 c 1.11619,-5.7111 4.561855,-10.34815 9.520145,-12.81187 10.87682,-5.40458 24.15198,1.09936 26.0493,12.76241 l 0.22171,1.36287 0.0971,23.921861 0.0971,23.92186 H 111.49916 93.322115 Z m 30.948285,-2.07091 -0.007,-21.11514 -0.21275,-1.220001 c -0.84338,-4.8363 -4.61487,-8.76631 -9.61089,-10.01484 l -1.29114,-0.32266 -2.00843,0.0124 c -6.70189,0.0413 -11.77837,4.67581 -12.54735,11.454881 -0.16091,1.41857 -0.21567,42.13412 -0.0569,42.29291 0.0506,0.0506 5.86307,0.0775 12.91669,0.0598 l 12.82475,-0.0322 z"
       id="path13" /></g></svg>
